<svg width="201" height="28" viewBox="0 0 201 28" fill="none" xmlns="http://www.w3.org/2000/svg">
<path d="M18.752 27.2421L13.4518 19.546L8.9249 27.2421H0.306093L9.16655 13.299L0 0H8.9249L14.064 7.50285L18.4781 0H27.0969L18.3653 13.7176L27.6769 27.2421H18.752Z" fill="#3E3D3A"/>
<path d="M52.5668 13.5889C51.8096 14.9413 50.6658 16.02 49.1193 16.8412C47.5888 17.6462 45.704 18.0648 43.4969 18.0648H39.7433V27.2582H32.1716V0.0161133H43.4969C45.6879 0.0161133 47.5566 0.402528 49.0871 1.17535C50.6175 1.94818 51.7774 3.01081 52.5507 4.37935C53.324 5.7479 53.7106 7.30965 53.7106 9.0968C53.7106 10.7391 53.324 12.2525 52.5668 13.5889ZM45.9617 9.0807C45.9617 7.10034 44.8985 6.10211 42.7559 6.10211H39.7433V12.011H42.7559C44.8985 12.011 45.9617 11.0289 45.9617 9.0807Z" fill="#3E3D3A"/>
<path d="M58.624 10.5137C59.4295 8.83924 60.5411 7.5512 61.9427 6.64957C63.3442 5.74794 64.9069 5.29712 66.6468 5.29712C68.145 5.29712 69.4338 5.58693 70.5131 6.18265C71.5925 6.77837 72.4302 7.58339 73.0263 8.58163V5.57083H80.5979V27.2421H73.0263V24.2313C72.4302 25.2296 71.5925 26.0346 70.497 26.6303C69.4015 27.226 68.1128 27.5158 66.6468 27.5158C64.923 27.5158 63.3603 27.065 61.9427 26.1634C60.5411 25.2618 59.4295 23.9737 58.624 22.2832C57.8185 20.5926 57.3997 18.6283 57.3997 16.3904C57.3997 14.1524 57.8024 12.1881 58.624 10.5137ZM71.8986 13.1059C71.1414 12.3009 70.207 11.9144 69.0955 11.9144C67.9839 11.9144 67.0173 12.3008 66.2762 13.0898C65.5352 13.8787 65.1485 14.9735 65.1485 16.3904C65.1485 17.8072 65.5191 18.886 66.2762 19.691C67.0334 20.496 67.9678 20.9146 69.0955 20.9146C70.2232 20.9146 71.1414 20.5121 71.8986 19.7232C72.6558 18.9182 73.0424 17.8233 73.0424 16.4065C73.0424 14.9896 72.6558 13.927 71.8986 13.122V13.1059Z" fill="#3E3D3A"/>
<path d="M99.6237 20.8019V27.2582H96.3373C90.7955 27.2582 88.0246 24.5211 88.0246 19.0308V11.8822H85.3503V5.58691H88.0246V0.338135H95.6446V5.58691H99.5915V11.8822H95.6446V19.1436C95.6446 19.7393 95.7735 20.1579 96.0473 20.4155C96.3212 20.6731 96.7723 20.8019 97.4167 20.8019H99.6237Z" fill="#3E3D3A"/>
<path d="M112.625 3.17177V12.172H122.452V15.0701H112.625V24.344H123.611V27.242H109.113V0.273682H123.611V3.17177H112.625Z" fill="#00AA5B"/>
<path d="M130.829 10.884C131.699 9.24172 132.907 7.98588 134.437 7.08425C135.968 6.18262 137.675 5.73181 139.56 5.73181C141.445 5.73181 143.024 6.13432 144.393 6.92325C145.763 7.72827 146.778 8.72651 147.454 9.93405V6.06992H151.014V27.2421H147.454V23.2975C146.761 24.5372 145.714 25.5515 144.345 26.3727C142.959 27.1777 141.365 27.5963 139.528 27.5963C137.692 27.5963 135.952 27.1294 134.421 26.1956C132.907 25.2778 131.699 23.9737 130.829 22.2992C129.959 20.6248 129.508 18.7249 129.508 16.5835C129.508 14.4422 129.943 12.5262 130.829 10.884ZM146.488 12.4457C145.843 11.2543 144.973 10.3527 143.878 9.72473C142.782 9.09681 141.574 8.77481 140.269 8.77481C138.964 8.77481 137.756 9.08072 136.677 9.69254C135.597 10.3044 134.727 11.2221 134.083 12.3974C133.439 13.5889 133.116 14.9735 133.116 16.5675C133.116 18.1614 133.439 19.5944 134.083 20.8019C134.727 21.9933 135.597 22.9111 136.677 23.5551C137.756 24.1991 138.964 24.505 140.269 24.505C141.574 24.505 142.782 24.183 143.878 23.5551C144.973 22.9272 145.843 22.0094 146.488 20.8019C147.132 19.6105 147.454 18.2097 147.454 16.6158C147.454 15.0218 147.132 13.6211 146.488 12.4457Z" fill="#00AA5B"/>
<path d="M161.985 26.7591C160.697 26.2117 159.682 25.4388 158.924 24.4406C158.183 23.4424 157.765 22.3153 157.684 21.0273H161.325C161.421 22.0899 161.921 22.9433 162.807 23.6195C163.693 24.2957 164.869 24.6177 166.303 24.6177C167.64 24.6177 168.703 24.3279 169.476 23.7322C170.25 23.1365 170.636 22.3958 170.636 21.4942C170.636 20.5926 170.217 19.8842 169.396 19.4333C168.574 18.9825 167.302 18.5317 165.562 18.097C163.983 17.6784 162.71 17.2598 161.711 16.8412C160.713 16.4064 159.875 15.7785 159.166 14.9413C158.457 14.1041 158.103 12.9931 158.103 11.6407C158.103 10.562 158.425 9.56373 159.069 8.66211C159.714 7.76048 160.632 7.05205 161.808 6.52073C163 5.98942 164.353 5.73181 165.868 5.73181C168.22 5.73181 170.105 6.32753 171.555 7.50287C173.005 8.6943 173.778 10.3044 173.874 12.3652H170.362C170.282 11.2543 169.847 10.3688 169.025 9.69254C168.22 9.03242 167.124 8.6943 165.755 8.6943C164.498 8.6943 163.484 8.96801 162.742 9.49933C162.001 10.0467 161.615 10.7552 161.615 11.6246C161.615 12.3169 161.84 12.8965 162.291 13.3473C162.742 13.7982 163.306 14.1524 163.999 14.4261C164.692 14.6998 165.626 15.0057 166.834 15.3277C168.349 15.7463 169.589 16.1488 170.54 16.5514C171.49 16.9539 172.312 17.5496 172.988 18.3546C173.665 19.1596 174.019 20.1901 174.052 21.4781C174.052 22.6374 173.729 23.6839 173.085 24.6177C172.441 25.5515 171.539 26.2761 170.362 26.8074C169.186 27.3387 167.849 27.5963 166.319 27.5963C164.692 27.5963 163.242 27.3226 161.953 26.7591H161.985Z" fill="#00AA5B"/>
<path d="M200.15 17.9682H183.218C183.347 20.0612 184.056 21.6874 185.361 22.8628C186.666 24.0381 188.245 24.6177 190.097 24.6177C191.612 24.6177 192.884 24.2635 193.899 23.5551C194.914 22.8466 195.639 21.8967 196.042 20.7214H199.828C199.264 22.75 198.12 24.4084 196.428 25.6803C194.721 26.9523 192.61 27.5963 190.081 27.5963C188.067 27.5963 186.279 27.1455 184.684 26.2438C183.105 25.3422 181.849 24.0542 180.947 22.3958C180.045 20.7375 179.594 18.8054 179.594 16.6157C179.594 14.4261 180.028 12.5101 180.915 10.8518C181.784 9.20951 183.025 7.93757 184.604 7.05204C186.182 6.16652 188.019 5.7157 190.081 5.7157C192.143 5.7157 193.867 6.15041 195.413 7.03594C196.96 7.90537 198.152 9.1129 198.99 10.6425C199.828 12.172 200.246 13.9109 200.246 15.8429C200.246 16.5191 200.214 17.2276 200.134 17.9682H200.15ZM195.752 11.6568C195.156 10.6908 194.35 9.95013 193.335 9.45102C192.32 8.9519 191.193 8.69429 189.952 8.69429C188.18 8.69429 186.666 9.25781 185.409 10.4009C184.153 11.528 183.444 13.1058 183.267 15.1184H196.638C196.638 13.7821 196.348 12.6228 195.752 11.6568Z" fill="#00AA5B"/>
</svg>
