<svg width="18" height="15" viewBox="0 0 18 15" fill="none" xmlns="http://www.w3.org/2000/svg">
<path d="M9.96927 14.781C9.89954 14.7114 9.84422 14.6287 9.80648 14.5376C9.76874 14.4466 9.74931 14.349 9.74931 14.2504C9.74931 14.1519 9.76874 14.0543 9.80648 13.9632C9.84422 13.8722 9.89954 13.7894 9.96927 13.7198L15.4396 8.25042L0.7499 8.25042C0.550989 8.25042 0.360222 8.1714 0.21957 8.03075C0.0789181 7.8901 -9.95187e-05 7.69933 -9.951e-05 7.50042C-9.95013e-05 7.3015 0.0789181 7.11074 0.21957 6.97009C0.360222 6.82943 0.550989 6.75042 0.749901 6.75042L15.4396 6.75042L9.96927 1.28104C9.82854 1.14031 9.74948 0.94944 9.74948 0.750417C9.74948 0.551394 9.82854 0.360522 9.96927 0.219792C10.11 0.0790612 10.3009 -3.35078e-07 10.4999 -3.27861e-07C10.6989 -3.20644e-07 10.8898 0.0790612 11.0305 0.219792L17.7805 6.96979C17.8503 7.03945 17.9056 7.12216 17.9433 7.21321C17.9811 7.30426 18.0005 7.40186 18.0005 7.50042C18.0005 7.59898 17.9811 7.69657 17.9433 7.78762C17.9056 7.87867 17.8503 7.96139 17.7805 8.03104L11.0305 14.781C10.9609 14.8508 10.8782 14.9061 10.7871 14.9438C10.6961 14.9816 10.5985 15.001 10.4999 15.001C10.4013 15.001 10.3037 14.9816 10.2127 14.9438C10.1216 14.9061 10.0389 14.8508 9.96927 14.781Z" fill="white"/>
</svg>
