<svg width="28" height="28" viewBox="0 0 28 28" fill="none" xmlns="http://www.w3.org/2000/svg">
<rect width="28" height="28" rx="14" fill="#00AA5B"/>
<path d="M21.9938 18.6165L18.4 14.0001H20.25C20.3668 14.0001 20.4812 13.9674 20.5803 13.9057C20.6794 13.844 20.7593 13.7558 20.8108 13.6511C20.8624 13.5464 20.8836 13.4293 20.872 13.3131C20.8604 13.1969 20.8166 13.0863 20.7453 12.9938L14.4953 4.86883C14.437 4.79297 14.3619 4.73154 14.2761 4.68926C14.1902 4.64699 14.0957 4.625 14 4.625C13.9043 4.625 13.8099 4.64699 13.724 4.68926C13.6381 4.73154 13.5631 4.79297 13.5047 4.86883L7.25471 12.9938C7.1835 13.0863 7.13962 13.1969 7.12805 13.3131C7.11647 13.4293 7.13766 13.5464 7.18922 13.6511C7.24077 13.7558 7.32064 13.844 7.41975 13.9057C7.51887 13.9674 7.63328 14.0001 7.75003 14.0001H9.5969L6.00315 18.6165C5.93117 18.7091 5.88669 18.8201 5.8748 18.9367C5.86291 19.0534 5.88409 19.1711 5.93592 19.2763C5.98775 19.3815 6.06814 19.47 6.1679 19.5317C6.26765 19.5934 6.38275 19.6257 6.50003 19.6251H13.375V22.7501C13.375 22.9158 13.4409 23.0748 13.5581 23.192C13.6753 23.3092 13.8343 23.3751 14 23.3751C14.1658 23.3751 14.3248 23.3092 14.442 23.192C14.5592 23.0748 14.625 22.9158 14.625 22.7501V19.6251H21.5C21.617 19.6251 21.7317 19.5923 21.831 19.5304C21.9303 19.4685 22.0102 19.38 22.0617 19.2749C22.1131 19.1698 22.134 19.0524 22.122 18.936C22.11 18.8196 22.0656 18.7089 21.9938 18.6165ZM7.77815 18.3751L11.3719 13.7587C11.4439 13.6661 11.4884 13.5551 11.5003 13.4384C11.5121 13.3217 11.491 13.2041 11.4391 13.0989C11.3873 12.9937 11.3069 12.9052 11.2072 12.8435C11.1074 12.7818 10.9923 12.7494 10.875 12.7501H9.01956L14 6.27508L18.9805 12.7501H17.125C17.0081 12.7502 16.8935 12.7831 16.7943 12.845C16.6951 12.907 16.6153 12.9956 16.564 13.1006C16.5126 13.2057 16.4918 13.3231 16.5038 13.4394C16.5158 13.5557 16.5603 13.6663 16.6321 13.7587L20.2219 18.3751H7.77815Z" fill="white"/>
</svg>
