<svg width="28" height="28" viewBox="0 0 28 28" fill="none" xmlns="http://www.w3.org/2000/svg">
<rect width="28" height="28" rx="14" fill="#DA4E2B"/>
<path d="M23.375 20.25H22.75V14C22.75 13.6685 22.6183 13.3505 22.3839 13.1161C22.1495 12.8817 21.8315 12.75 21.5 12.75H17.125V7.75C17.125 7.41848 16.9933 7.10054 16.7589 6.86612C16.5245 6.6317 16.2065 6.5 15.875 6.5H8.375C8.04348 6.5 7.72554 6.6317 7.49112 6.86612C7.2567 7.10054 7.125 7.41848 7.125 7.75V20.25H6.5C6.33424 20.25 6.17527 20.3158 6.05806 20.4331C5.94085 20.5503 5.875 20.7092 5.875 20.875C5.875 21.0408 5.94085 21.1997 6.05806 21.3169C6.17527 21.4342 6.33424 21.5 6.5 21.5H23.375C23.5408 21.5 23.6997 21.4342 23.8169 21.3169C23.9342 21.1997 24 21.0408 24 20.875C24 20.7092 23.9342 20.5503 23.8169 20.4331C23.6997 20.3158 23.5408 20.25 23.375 20.25ZM21.5 14V20.25H17.125V14H21.5ZM8.375 7.75H15.875V20.25H14.625V16.5C14.625 16.3342 14.5592 16.1753 14.4419 16.0581C14.3247 15.9408 14.1658 15.875 14 15.875H10.25C10.0842 15.875 9.92527 15.9408 9.80806 16.0581C9.69085 16.1753 9.625 16.3342 9.625 16.5V20.25H8.375V7.75ZM13.375 20.25H10.875V17.125H13.375V20.25ZM9.625 11.5C9.625 11.3342 9.69085 11.1753 9.80806 11.0581C9.92527 10.9408 10.0842 10.875 10.25 10.875H11.5V9.625C11.5 9.45924 11.5658 9.30027 11.6831 9.18306C11.8003 9.06585 11.9592 9 12.125 9C12.2908 9 12.4497 9.06585 12.5669 9.18306C12.6842 9.30027 12.75 9.45924 12.75 9.625V10.875H14C14.1658 10.875 14.3247 10.9408 14.4419 11.0581C14.5592 11.1753 14.625 11.3342 14.625 11.5C14.625 11.6658 14.5592 11.8247 14.4419 11.9419C14.3247 12.0592 14.1658 12.125 14 12.125H12.75V13.375C12.75 13.5408 12.6842 13.6997 12.5669 13.8169C12.4497 13.9342 12.2908 14 12.125 14C11.9592 14 11.8003 13.9342 11.6831 13.8169C11.5658 13.6997 11.5 13.5408 11.5 13.375V12.125H10.25C10.0842 12.125 9.92527 12.0592 9.80806 11.9419C9.69085 11.8247 9.625 11.6658 9.625 11.5Z" fill="white"/>
</svg>
