<svg width="28" height="28" viewBox="0 0 28 28" fill="none" xmlns="http://www.w3.org/2000/svg">
<rect width="28" height="28" rx="14" fill="#FFA500"/>
<path d="M21.5 12.75H6.5C6.33424 12.75 6.17527 12.8159 6.05806 12.9331C5.94085 13.0503 5.875 13.2092 5.875 13.375C5.87775 14.8614 6.28679 16.3187 7.0579 17.5893C7.82901 18.86 8.93283 19.8957 10.25 20.5844V20.875C10.25 21.2065 10.3817 21.5245 10.6161 21.7589C10.8505 21.9933 11.1685 22.125 11.5 22.125H16.5C16.8315 22.125 17.1495 21.9933 17.3839 21.7589C17.6183 21.5245 17.75 21.2065 17.75 20.875V20.5844C19.0672 19.8957 20.171 18.86 20.9421 17.5893C21.7132 16.3187 22.1223 14.8614 22.125 13.375C22.125 13.2092 22.0592 13.0503 21.9419 12.9331C21.8247 12.8159 21.6658 12.75 21.5 12.75ZM16.8641 19.625C16.7554 19.6749 16.6633 19.755 16.5988 19.8557C16.5343 19.9563 16.5 20.0734 16.5 20.193V20.875H11.5V20.1945C11.5003 20.0747 11.4662 19.9573 11.4016 19.8563C11.3371 19.7553 11.2448 19.675 11.1359 19.625C10.0368 19.1192 9.09006 18.3332 8.39071 17.3459C7.69136 16.3586 7.26401 15.2047 7.15156 14H20.8461C20.7339 15.2044 20.3069 16.3582 19.6079 17.3455C18.909 18.3328 17.9628 19.1189 16.8641 19.625ZM10.3883 8.29688C10.8062 7.77657 10.9094 7.42501 10.8664 7.27032C10.8336 7.15392 10.6781 7.09376 10.6766 7.09376C10.5351 7.04727 10.4149 6.95178 10.3375 6.82451C10.2602 6.69724 10.2309 6.54654 10.2548 6.39956C10.2787 6.25258 10.3544 6.11897 10.4681 6.0228C10.5818 5.92663 10.7261 5.87422 10.875 5.87501C10.938 5.87508 11.0007 5.88456 11.0609 5.90313C11.1391 5.92735 11.8352 6.16329 12.0602 6.90001C12.2523 7.53048 12.0172 8.26329 11.3617 9.07892C10.9438 9.59923 10.8406 9.95079 10.8836 10.1055C10.9164 10.2219 11.0687 10.2805 11.0703 10.2813C11.2115 10.3277 11.3316 10.4229 11.4089 10.5498C11.4862 10.6768 11.5158 10.8271 11.4923 10.9739C11.4688 11.1207 11.3937 11.2543 11.2806 11.3507C11.1674 11.4471 11.0236 11.5 10.875 11.5C10.812 11.4999 10.7493 11.4905 10.6891 11.4719C10.6109 11.4477 9.91484 11.2117 9.68984 10.475C9.49766 9.84454 9.73281 9.11173 10.3883 8.29688ZM13.5133 8.29688C13.9312 7.77657 14.0344 7.42501 13.9914 7.27032C13.9586 7.15392 13.8031 7.09376 13.8016 7.09376C13.6601 7.04727 13.5399 6.95178 13.4625 6.82451C13.3852 6.69724 13.3559 6.54654 13.3798 6.39956C13.4037 6.25258 13.4794 6.11897 13.5931 6.0228C13.7068 5.92663 13.8511 5.87422 14 5.87501C14.063 5.87508 14.1257 5.88456 14.1859 5.90313C14.2641 5.92735 14.9602 6.16329 15.1852 6.90001C15.3773 7.53048 15.1422 8.26329 14.4867 9.07892C14.0687 9.59923 13.9656 9.95079 14.0086 10.1055C14.0414 10.2219 14.1938 10.2805 14.1953 10.2813C14.3365 10.3277 14.4566 10.4229 14.5339 10.5498C14.6112 10.6768 14.6408 10.8271 14.6173 10.9739C14.5938 11.1207 14.5187 11.2543 14.4056 11.3507C14.2924 11.4471 14.1486 11.5 14 11.5C13.937 11.4999 13.8743 11.4905 13.8141 11.4719C13.7359 11.4477 13.0398 11.2117 12.8148 10.475C12.6227 9.84454 12.8578 9.11173 13.5133 8.29688ZM16.6383 8.29688C17.0563 7.77657 17.1594 7.42501 17.1164 7.27032C17.0836 7.15392 16.9281 7.09376 16.9266 7.09376C16.7851 7.04727 16.6649 6.95178 16.5875 6.82451C16.5102 6.69724 16.4809 6.54654 16.5048 6.39956C16.5287 6.25258 16.6044 6.11897 16.7181 6.0228C16.8318 5.92663 16.9761 5.87422 17.125 5.87501C17.188 5.87508 17.2507 5.88456 17.3109 5.90313C17.3891 5.92735 18.0852 6.16329 18.3102 6.90001C18.5023 7.53048 18.2672 8.26329 17.6117 9.07892C17.1937 9.59923 17.0906 9.95079 17.1336 10.1055C17.1664 10.2219 17.3188 10.2805 17.3203 10.2813C17.4615 10.3277 17.5816 10.4229 17.6589 10.5498C17.7362 10.6768 17.7658 10.8271 17.7423 10.9739C17.7188 11.1207 17.6437 11.2543 17.5306 11.3507C17.4174 11.4471 17.2736 11.5 17.125 11.5C17.062 11.4999 16.9993 11.4905 16.9391 11.4719C16.8609 11.4477 16.1648 11.2117 15.9398 10.475C15.7477 9.84454 15.9828 9.11173 16.6383 8.29688Z" fill="white"/>
</svg>
