<svg width="28" height="28" viewBox="0 0 28 28" fill="none" xmlns="http://www.w3.org/2000/svg">
<rect width="28" height="28" rx="14" fill="#FFD500"/>
<path d="M23.6686 10.9485L14.2936 5.94846C14.2031 5.90031 14.1023 5.87512 13.9998 5.87512C13.8974 5.87512 13.7965 5.90031 13.7061 5.94846L4.33105 10.9485C4.23106 11.0017 4.14743 11.0812 4.08912 11.1784C4.0308 11.2755 4 11.3867 4 11.5C4 11.6133 4.0308 11.7245 4.08912 11.8217C4.14743 11.9188 4.23106 11.9983 4.33105 12.0516L6.4998 13.2086V16.9914C6.49916 17.2984 6.61214 17.5948 6.81699 17.8235C7.84043 18.9633 10.1334 20.875 13.9998 20.875C15.2818 20.8856 16.5542 20.6534 17.7498 20.1906V22.75C17.7498 22.9158 17.8157 23.0748 17.9329 23.192C18.0501 23.3092 18.209 23.375 18.3748 23.375C18.5406 23.375 18.6995 23.3092 18.8167 23.192C18.934 23.0748 18.9998 22.9158 18.9998 22.75V19.5867C19.8148 19.1163 20.5513 18.5213 21.1826 17.8235C21.3875 17.5948 21.5005 17.2984 21.4998 16.9914V13.2086L23.6686 12.0516C23.7686 11.9983 23.8522 11.9188 23.9105 11.8217C23.9688 11.7245 23.9996 11.6133 23.9996 11.5C23.9996 11.3867 23.9688 11.2755 23.9105 11.1784C23.8522 11.0812 23.7686 11.0017 23.6686 10.9485ZM13.9998 19.625C10.6193 19.625 8.63105 17.9735 7.7498 16.9914V13.875L13.7061 17.0516C13.7965 17.0997 13.8974 17.1249 13.9998 17.1249C14.1023 17.1249 14.2031 17.0997 14.2936 17.0516L17.7498 15.2086V18.8289C16.7654 19.2883 15.5248 19.625 13.9998 19.625ZM20.2498 16.9883C19.8752 17.404 19.456 17.7774 18.9998 18.1016V14.5414L20.2498 13.875V16.9883ZM18.6873 13.2922L18.6701 13.282L14.2951 10.9485C14.1491 10.8739 13.9797 10.8597 13.8234 10.9088C13.667 10.958 13.5362 11.0666 13.4592 11.2113C13.3821 11.3559 13.365 11.5251 13.4115 11.6823C13.4579 11.8394 13.5643 11.9721 13.7076 12.0516L17.3592 14L13.9998 15.7914L5.95293 11.5L13.9998 7.20861L22.0467 11.5L18.6873 13.2922Z" fill="white"/>
</svg>
